<svg xmlns="http://www.w3.org/2000/svg" width="24" height="24" viewBox="0 0 24 24"><path fill="none" d="M0,0H24V24H0Z" data-name="Path 3700"/><path fill="#525863" d="M17.4,19.2H12.9a1.8,1.8,0,0,1-1.8-1.8V12.9a1.8,1.8,0,0,1,1.8-1.8h4.5a1.8,1.8,0,0,1,1.8,1.8v4.5A1.8,1.8,0,0,1,17.4,19.2Zm0-6.3H12.9v4.5h4.5Zm0-4.8H12.9a1.8,1.8,0,0,1-1.8-1.8V1.8A1.8,1.8,0,0,1,12.9,0h4.5a1.8,1.8,0,0,1,1.8,1.8V6.3A1.8,1.8,0,0,1,17.4,8.1Zm0-6.3H12.9V6.3h4.5ZM6.3,19.2H1.8A1.8,1.8,0,0,1,0,17.4V12.9a1.8,1.8,0,0,1,1.8-1.8H6.3a1.8,1.8,0,0,1,1.8,1.8v4.5A1.8,1.8,0,0,1,6.3,19.2Zm0-6.3H1.8v4.5H6.3Zm0-4.8H1.8A1.8,1.8,0,0,1,0,6.3V1.8A1.8,1.8,0,0,1,1.8,0H6.3A1.8,1.8,0,0,1,8.1,1.8V6.3A1.8,1.8,0,0,1,6.3,8.1Zm0-6.3H1.8V6.3H6.3Z" data-name="Color Fill 1" transform="translate(2.4 2.4)"/></svg>