<?xml version="1.0" standalone="no"?>
<!DOCTYPE svg PUBLIC "-//W3C//DTD SVG 20010904//EN"
 "http://www.w3.org/TR/2001/REC-SVG-20010904/DTD/svg10.dtd">
<svg version="1.0" xmlns="http://www.w3.org/2000/svg"
 width="500.000000pt" height="205.000000pt" viewBox="0 0 500.000000 205.000000"
 preserveAspectRatio="xMidYMid meet">
<metadata>
Created by potrace 1.16, written by Peter Selinger 2001-2019
</metadata>
<g transform="translate(0.000000,205.000000) scale(0.100000,-0.100000)"
fill="#4c575f" stroke="none">
<path d="M2355 1878 c-113 -132 -321 -545 -416 -828 -74 -223 -74 -326 0 -408
22 -24 48 -42 60 -42 19 0 21 6 21 58 0 122 39 229 135 372 100 150 194 244
263 265 19 5 22 3 22 -20 0 -58 -95 -189 -194 -266 -41 -32 -54 -48 -51 -64
23 -115 73 -292 95 -340 30 -66 70 -112 107 -121 52 -13 151 24 173 66 8 14 2
23 -32 46 -58 41 -122 123 -167 217 -57 118 -57 121 -17 135 111 41 215 221
191 331 -4 17 -18 45 -32 61 -31 37 -75 40 -136 9 -53 -27 -175 -145 -224
-216 -20 -29 -38 -53 -40 -53 -8 0 45 117 103 230 76 147 171 284 266 383 37
40 68 80 68 90 0 27 -49 95 -85 117 -48 29 -69 25 -110 -22z"/>
<path d="M2958 1885 c-65 -47 -68 -67 -22 -145 63 -107 121 -242 138 -317 21
-95 21 -98 -7 -80 -48 31 -100 40 -137 24 -150 -63 -322 -360 -324 -557 -1
-102 29 -157 108 -195 107 -52 179 -31 287 82 198 207 288 527 230 811 -26
126 -80 264 -135 346 -51 75 -72 80 -138 31z m138 -689 c-16 -172 -97 -364
-200 -472 -70 -73 -103 -83 -132 -39 -48 73 52 308 204 476 41 46 116 109 130
109 3 0 2 -33 -2 -74z"/>
<path d="M900 1767 c0 -8 -20 -27 -45 -41 -104 -61 -291 -263 -417 -451 -59
-88 -62 -90 -117 -106 -71 -19 -101 -36 -101 -54 0 -11 13 -15 53 -15 l53 0
-68 -136 c-92 -179 -120 -255 -116 -313 3 -45 4 -47 60 -74 31 -16 62 -26 67
-22 6 3 11 21 11 39 0 35 40 201 61 252 6 16 34 77 62 137 l51 108 150 -3 151
-3 -2 -45 c-1 -25 -5 -129 -9 -232 -5 -145 -4 -191 6 -203 13 -16 129 -55 164
-55 21 0 21 3 23 173 3 311 73 695 163 894 17 36 30 70 30 75 0 14 -144 79
-190 85 -32 5 -40 2 -40 -10z m-35 -209 c-3 -13 -21 -89 -40 -170 -19 -80 -35
-153 -35 -161 0 -11 -26 -15 -132 -20 -73 -3 -134 -4 -136 -3 -6 6 125 181
182 243 56 61 141 132 159 133 4 0 5 -10 2 -22z"/>
<path d="M4240 1746 c-5 -13 -16 -57 -24 -98 -13 -64 -13 -80 0 -127 7 -30 19
-58 26 -63 17 -10 38 -10 38 1 0 11 110 150 139 175 29 26 27 39 -10 71 -78
65 -153 83 -169 41z"/>
<path d="M1382 1458 c-42 -62 -55 -90 -100 -218 -22 -63 -76 -207 -120 -320
-136 -347 -177 -504 -170 -648 4 -89 4 -90 42 -126 22 -20 42 -36 47 -36 5 0
13 19 19 43 88 343 180 631 236 737 66 126 230 313 327 374 l28 17 -7 -28
c-32 -132 -112 -303 -189 -403 -45 -58 -130 -140 -146 -140 -17 0 -9 -29 10
-40 36 -19 109 -11 169 17 68 33 177 137 215 207 51 92 79 185 84 282 6 102
-1 125 -50 154 -76 47 -155 16 -274 -107 -76 -78 -81 -82 -67 -46 28 67 71
146 108 202 31 45 35 57 24 68 -15 14 -118 53 -142 53 -8 0 -28 -19 -44 -42z"/>
<path d="M3585 1366 c-254 -119 -405 -521 -257 -682 68 -75 148 -82 263 -24
180 91 299 298 287 497 -6 91 -25 123 -73 123 -19 0 -35 4 -35 9 0 4 -18 29
-41 55 -48 54 -69 57 -144 22z m169 -148 c21 -81 -12 -256 -67 -346 -41 -70
-124 -145 -183 -168 -45 -17 -47 -17 -60 0 -39 54 -21 165 47 296 45 87 113
164 185 210 57 36 70 37 78 8z"/>
<path d="M4595 1366 c-254 -119 -405 -521 -257 -682 68 -75 148 -82 263 -24
180 91 299 298 287 497 -6 91 -25 123 -73 123 -19 0 -35 4 -35 9 0 4 -18 29
-41 55 -48 54 -69 57 -144 22z m169 -148 c21 -81 -12 -256 -67 -346 -41 -70
-124 -145 -183 -168 -45 -17 -47 -17 -60 0 -39 54 -21 165 47 296 45 87 113
164 185 210 57 36 70 37 78 8z"/>
<path d="M4152 1373 c-22 -9 -70 -88 -101 -165 -16 -42 -66 -210 -110 -374
-140 -525 -186 -621 -301 -632 -43 -4 -56 0 -92 23 -39 26 -42 27 -55 9 -19
-26 -17 -31 26 -60 82 -54 193 -69 266 -35 119 54 196 224 370 822 36 120 74
227 101 281 24 48 44 92 44 98 0 27 -105 51 -148 33z"/>
</g>
</svg>
