<?xml version="1.0" encoding="utf-8"?>
<!-- Generator: Adobe Illustrator 19.1.0, SVG Export Plug-In . SVG Version: 6.00 Build 0)  -->
<svg version="1.1" id="Layer_1" xmlns="http://www.w3.org/2000/svg" xmlns:xlink="http://www.w3.org/1999/xlink" x="0px" y="0px"
	 viewBox="0 0 612 792" style="enable-background:new 0 0 612 792;" xml:space="preserve">
<style type="text/css">
	.st0{fill:#777777;}
</style>
<g>
	<path class="st0" d="M315,383.8c-0.1-0.2-0.2-0.3-0.5-0.4l-6-0.8l-2.7-5.1c-0.1-0.2-0.3-0.3-0.5-0.3l0,0c-0.2,0-0.4,0.1-0.5,0.3
		l-2.7,5.1l-6,0.8c-0.2,0-0.4,0.2-0.5,0.4c-0.1,0.2,0,0.4,0.1,0.5l4.4,3.9l-1,5.6c0,0.2,0.1,0.4,0.2,0.4c0.1,0.1,0.2,0.1,0.3,0.1
		c0.1,0,0.2,0,0.3-0.1l5.4-2.7l5.4,2.6c0.1,0,0.2,0.1,0.3,0.1l0,0c0.3,0,0.6-0.3,0.6-0.5v-0.1l-1-5.5l4.3-3.9
		C315,384.1,315.1,383.9,315,383.8z M309.6,387.7c-0.1,0.1-0.2,0.3-0.2,0.4l0.9,4.8l-4.7-2.3c-0.2-0.1-0.4-0.1-0.5,0l-4.7,2.3
		l0.8-4.8c0-0.2,0-0.4-0.2-0.4l-3.8-3.4l5.3-0.7c0.2,0,0.3-0.1,0.4-0.3l2.3-4.4l2.3,4.4c0.1,0.2,0.2,0.3,0.4,0.3l5.3,0.7
		L309.6,387.7z"/>
	<path class="st0" d="M315.4,409.4c0-0.1-0.2-0.2-0.3-0.2l-6.5-0.9l-2.9-5.3c-0.1-0.1-0.2-0.2-0.3-0.2c-0.1,0-0.3,0.1-0.3,0.2
		l-2.9,5.3l-6.5,0.9c-0.1,0-0.3,0.1-0.3,0.2c0,0.1,0,0.3,0.1,0.4l4.7,4.2l-1.1,5.9c0,0.1,0,0.3,0.2,0.4c0.1,0.1,0.3,0.1,0.4,0
		l5.8-2.8l5.8,2.8c0.1,0,0.1,0,0.2,0s0.2,0,0.2-0.1c0.1-0.1,0.2-0.2,0.2-0.4l-1.1-5.9l4.7-4.2C315.4,409.7,315.4,409.5,315.4,409.4z
		"/>
</g>
</svg>
