<svg class="svg-inline--fa fa-stream fa-w-16" aria-hidden="true" focusable="false" data-prefix="fad" data-icon="stream" role="img" xmlns="http://www.w3.org/2000/svg" viewBox="0 0 512 512" data-fa-i2svg=""><g class="fa-group"><path opacity="0.4" d="M512 224v64a16 16 0 0 1-16 16H80a16 16 0 0 1-16-16v-64a16 16 0 0 1 16-16h416a16 16 0 0 1 16 16z"></path><path class="fa-primary" fill="currentColor" d="M432 32H16A16 16 0 0 0 0 48v64a16 16 0 0 0 16 16h416a16 16 0 0 0 16-16V48a16 16 0 0 0-16-16zm0 352H16a16 16 0 0 0-16 16v64a16 16 0 0 0 16 16h416a16 16 0 0 0 16-16v-64a16 16 0 0 0-16-16z"></path></g></svg>